<?xml version="1.0" standalone="no"?>
<!DOCTYPE svg PUBLIC "-//W3C//DTD SVG 20010904//EN"
 "http://www.w3.org/TR/2001/REC-SVG-20010904/DTD/svg10.dtd">
<svg version="1.0" xmlns="http://www.w3.org/2000/svg"
 width="640.000000pt" height="640.000000pt" viewBox="0 0 640.000000 640.000000"
 preserveAspectRatio="xMidYMid meet">
<metadata>
Created by potrace 1.11, written by Peter Selinger 2001-2013
</metadata>
<g transform="translate(0.000000,640.000000) scale(0.100000,-0.100000)"
fill="#000000" stroke="none">
<path d="M0 4013 l0 -2386 31 46 c16 25 38 49 48 52 23 7 191 170 191 184 0 6
-4 11 -10 11 -24 0 -6 17 45 44 38 20 60 39 71 61 9 20 25 36 41 40 17 4 23
11 19 21 -3 9 6 31 20 50 15 19 24 41 20 49 -4 10 3 19 19 27 16 7 25 19 25
33 0 12 10 35 21 50 l22 27 -26 22 -25 22 24 23 c28 27 23 44 -12 35 -21 -5
-23 -3 -17 12 6 17 5 18 -12 4 -17 -14 -18 -13 -11 5 4 11 9 27 11 35 2 8 4
17 5 20 1 3 2 9 1 14 -1 5 5 26 13 47 15 37 15 39 -6 50 -20 11 -20 13 -5 24
16 12 16 13 1 19 -9 3 -20 3 -25 0 -6 -3 -17 0 -25 7 -13 11 -11 15 13 35 27
22 27 23 6 24 -16 0 -21 4 -17 15 4 8 1 15 -5 15 -19 0 -12 28 14 56 34 36 32
44 -11 44 l-36 0 17 26 c13 20 14 28 5 34 -9 5 -9 9 -1 14 16 10 13 26 -5 26
-10 0 -12 5 -7 13 14 22 12 37 -7 50 -16 11 -16 15 -4 31 8 11 11 29 8 43 -5
17 0 28 17 42 23 19 23 20 5 34 -18 13 -17 15 18 43 42 34 45 44 11 44 -27 0
-32 9 -13 28 10 10 10 15 -2 22 -12 8 -12 10 3 16 14 5 15 9 6 20 -9 11 -7 14
9 14 15 0 20 5 16 15 -4 8 -1 22 5 29 8 10 9 16 1 21 -7 4 -7 12 1 27 6 11 9
29 6 39 -3 11 2 27 11 35 9 9 16 32 15 50 0 27 4 34 18 34 20 0 24 16 10 39
-12 18 7 61 27 61 9 0 12 6 8 16 -3 8 -1 24 4 34 7 13 7 21 0 25 -15 9 -2 25
21 25 16 0 18 5 14 31 -5 27 -3 30 15 24 21 -7 27 4 10 21 -7 7 -6 20 4 39 11
21 12 34 5 47 -9 16 -7 19 8 17 34 -6 45 10 23 33 -29 32 -25 40 17 32 l36 -7
-21 31 c-23 32 -28 47 -13 37 6 -3 15 4 22 16 10 19 9 25 -7 36 -13 10 -14 13
-3 13 8 0 20 14 27 30 8 17 21 30 29 30 13 0 13 3 3 15 -10 13 -9 15 12 15 34
0 41 10 21 32 -15 17 -15 20 -3 28 8 6 25 10 38 10 12 0 22 5 22 10 0 6 -4 10
-10 10 -21 0 -9 20 15 26 17 4 25 13 25 28 0 15 9 27 26 35 23 10 24 14 13 28
-13 15 -11 16 19 10 30 -6 32 -5 26 18 -5 21 -3 23 16 18 19 -5 21 -3 15 17
-5 16 -4 20 4 16 6 -4 25 -4 42 -1 24 5 30 11 26 26 -3 12 0 19 9 19 17 0 18
32 2 48 -7 7 -8 12 -2 12 5 0 15 -5 21 -11 18 -18 35 -1 22 22 -6 12 -8 23 -5
27 3 3 6 2 6 -1 0 -4 9 2 20 13 11 11 17 25 15 32 -3 8 8 19 25 26 17 8 30 21
30 31 0 19 40 61 58 61 7 0 12 9 12 19 0 10 7 21 15 25 8 3 15 15 15 26 0 12
6 20 13 19 30 -4 37 4 48 45 7 28 18 46 29 49 13 3 16 11 13 31 -3 16 -1 26 6
26 7 0 28 16 48 35 20 20 47 38 60 41 18 5 23 13 23 38 0 25 6 34 30 45 17 7
36 11 43 8 21 -8 57 12 57 31 0 30 22 68 47 79 29 14 30 2 7 -94 -11 -47 -14
-85 -9 -123 4 -30 8 -64 9 -75 1 -11 12 -36 24 -55 12 -19 22 -41 22 -49 0 -8
6 -11 15 -7 14 5 14 3 1 -15 -8 -12 -12 -27 -10 -34 3 -7 -1 -15 -8 -18 -16
-6 -23 -83 -10 -100 6 -7 13 -27 17 -45 3 -18 10 -30 14 -27 5 2 19 -9 31 -26
17 -22 26 -26 32 -17 6 10 8 10 8 -2 0 -12 2 -13 9 -1 7 11 11 9 20 -8 14 -25
41 -28 41 -5 0 11 6 15 19 11 14 -3 17 0 13 15 -4 18 -2 19 17 9 17 -10 21 -9
21 4 0 8 -9 20 -19 27 -15 9 -17 16 -9 25 8 10 16 9 38 -7 34 -24 40 -25 40
-5 0 8 -11 22 -25 31 -22 14 -35 44 -19 44 7 0 77 -52 86 -64 4 -6 13 -4 22 3
11 9 16 10 16 2 0 -6 -5 -11 -12 -11 -6 0 -3 -9 7 -20 10 -11 26 -20 37 -20
22 0 24 16 3 24 -8 3 -15 14 -15 25 0 11 -6 24 -12 28 -7 4 -30 28 -52 52 -30
34 -35 45 -25 52 22 14 27 11 55 -31 15 -22 31 -40 35 -40 11 0 -16 67 -35 90
-7 8 -11 21 -9 28 3 8 31 -13 74 -57 38 -39 71 -71 75 -71 3 0 4 9 1 20 -7 27
10 15 28 -20 21 -40 55 -58 70 -37 9 12 15 13 23 5 6 -6 14 -9 17 -7 8 9 -15
76 -36 103 -12 15 -18 30 -14 34 7 8 44 -37 45 -55 0 -6 4 -13 8 -15 9 -3 61
-90 78 -129 17 -39 38 -49 32 -16 -3 15 -1 24 3 21 5 -3 6 2 3 10 -3 9 -12 16
-20 16 -8 0 -14 5 -14 10 0 6 9 10 20 10 21 0 28 24 10 35 -5 3 -10 21 -10 39
0 25 -9 42 -32 65 -17 17 -36 31 -41 31 -5 0 -20 9 -34 20 -14 11 -23 20 -20
20 11 0 82 -34 110 -53 16 -11 30 -17 33 -14 3 2 -6 38 -20 80 -22 67 -32 167
-16 167 22 -1 49 -42 59 -88 6 -29 21 -72 33 -95 l23 -42 5 45 c3 25 3 48 0
53 -9 10 0 67 10 67 4 0 11 -10 15 -22 7 -20 9 -17 13 17 4 32 6 36 11 17 3
-13 10 -23 14 -22 5 1 15 -7 23 -17 12 -16 13 -13 14 30 0 26 5 47 10 47 6 0
10 -20 10 -45 0 -38 3 -45 17 -43 15 2 19 -7 24 -52 10 -89 39 -207 55 -220
12 -10 14 -8 14 14 0 15 -7 34 -15 42 -8 9 -15 30 -15 47 0 55 39 197 60 219
26 28 25 33 -6 93 -38 73 -51 84 -92 83 l-35 -1 39 -33 c43 -37 39 -58 -7 -31
-17 9 -35 17 -40 17 -13 0 -49 37 -42 44 3 3 -6 8 -21 12 -14 3 -26 11 -26 16
0 6 -7 7 -16 4 -8 -3 -35 3 -59 14 -24 11 -59 20 -77 21 -18 0 -27 3 -20 6 28
11 -8 29 -52 26 -25 -2 -47 1 -51 7 -3 5 -1 10 5 10 6 0 8 5 5 10 -3 6 -15 10
-26 10 -10 0 -19 7 -19 15 0 10 -10 15 -30 15 -16 0 -30 5 -30 10 0 14 42 12
118 -4 34 -7 62 -10 62 -7 0 13 -82 51 -109 51 -15 0 -32 5 -38 11 -6 6 -44
15 -84 20 -40 5 -77 13 -83 19 -13 13 7 13 129 -5 126 -18 137 -18 99 3 -17 9
-44 27 -60 40 -16 13 -44 33 -63 45 -19 12 -37 29 -39 37 -4 11 0 11 21 -3 15
-9 35 -17 46 -17 11 0 26 -8 33 -17 24 -32 76 -62 120 -69 24 -4 57 -16 73
-26 47 -28 54 -31 71 -24 13 5 14 9 4 21 -7 8 -18 15 -25 15 -7 0 -24 9 -38
20 -14 11 -36 20 -49 21 -12 0 -32 5 -43 10 -17 8 -15 8 8 4 15 -3 27 -3 27 0
0 9 -93 65 -109 65 -14 0 -154 140 -148 147 6 5 72 -22 87 -36 11 -11 15 -11
18 -1 3 7 -6 22 -20 34 -13 11 -45 48 -70 81 -57 73 -111 125 -132 125 -19 0
-56 -30 -56 -46 0 -7 -11 -22 -25 -35 -13 -13 -25 -32 -25 -41 0 -9 -11 -25
-25 -36 -14 -11 -25 -26 -25 -34 0 -8 -7 -23 -16 -34 -14 -18 -15 -15 -11 40
3 45 9 63 25 76 14 12 22 34 27 73 4 32 11 57 16 57 4 0 11 16 15 36 4 19 13
38 21 41 8 3 12 12 9 20 -3 7 1 16 9 19 8 4 15 15 15 25 0 10 7 19 15 19 12 0
13 4 5 19 -14 27 -13 30 9 24 16 -4 19 -1 14 15 -4 16 1 21 18 24 16 2 25 12
31 36 5 18 15 32 23 32 8 0 15 9 15 20 0 13 7 20 19 20 11 0 23 5 26 10 4 7
-370 10 -1114 10 l-1121 0 0 -2387z m1910 1706 c0 -11 -4 -17 -10 -14 -5 3
-10 13 -10 21 0 8 5 14 10 14 6 0 10 -9 10 -21z m460 -99 c0 -5 -5 -10 -11
-10 -5 0 -7 5 -4 10 3 6 8 10 11 10 2 0 4 -4 4 -10z m-536 -147 c-8 -33 -50
-87 -58 -75 -8 13 37 101 52 102 9 0 10 -8 6 -27z m453 -39 c-3 -3 -12 -4 -19
-1 -8 3 -5 6 6 6 11 1 17 -2 13 -5z m217 -200 c4 -10 1 -14 -6 -12 -15 5 -23
28 -10 28 5 0 13 -7 16 -16z m146 12 c0 -13 -33 -34 -45 -30 -24 9 -17 22 13
27 15 2 28 5 30 6 1 0 2 -1 2 -3z m110 -78 c0 -10 -4 -18 -10 -18 -5 0 -10 15
-10 33 0 24 3 28 10 17 5 -8 10 -23 10 -32z m-55 22 c-3 -5 -13 -10 -21 -10
-8 0 -14 5 -14 10 0 6 9 10 21 10 11 0 17 -4 14 -10z m-180 -10 c3 -5 -1 -10
-9 -10 -9 0 -16 5 -16 10 0 6 4 10 9 10 6 0 13 -4 16 -10z m85 -54 c0 -3 -4
-8 -10 -11 -5 -3 -10 -1 -10 4 0 6 5 11 10 11 6 0 10 -2 10 -4z m-670 -27 c0
-6 -9 -13 -20 -16 -11 -3 -21 -13 -21 -22 -1 -14 -2 -13 -6 2 -2 9 -9 17 -14
17 -16 0 -10 18 9 23 32 9 52 7 52 -4z m137 -15 c-3 -3 -12 -4 -19 -1 -8 3 -5
6 6 6 11 1 17 -2 13 -5z m553 -29 c0 -8 -7 -15 -15 -15 -9 0 -12 6 -9 15 4 8
10 15 15 15 5 0 9 -7 9 -15z m-313 -41 c-3 -3 -12 -4 -19 -1 -8 3 -5 6 6 6 11
1 17 -2 13 -5z m528 -3 c3 -5 1 -12 -5 -16 -5 -3 -10 1 -10 9 0 18 6 21 15 7z
m-490 -11 c3 -5 2 -10 -4 -10 -5 0 -13 5 -16 10 -3 6 -2 10 4 10 5 0 13 -4 16
-10z m-1585 -620 c0 -5 -2 -10 -4 -10 -3 0 -8 5 -11 10 -3 6 -1 10 4 10 6 0
11 -4 11 -10z"/>
<path d="M2760 6387 c0 -8 15 -34 34 -58 19 -24 45 -71 59 -104 13 -33 42 -98
62 -145 21 -47 46 -121 57 -165 11 -44 24 -89 29 -100 17 -38 39 -110 39 -128
0 -9 9 -34 20 -54 11 -21 20 -45 20 -54 0 -33 31 -90 55 -101 22 -10 53 -49
117 -146 24 -37 45 -46 111 -47 46 -1 61 -6 72 -22 11 -16 30 -23 75 -28 33
-4 63 -11 66 -16 3 -5 20 -9 38 -9 33 0 141 -32 186 -55 14 -7 41 -13 61 -13
20 0 47 -7 60 -15 13 -9 51 -18 84 -20 60 -4 165 -41 165 -58 0 -5 8 -9 19 -9
11 0 21 -9 24 -21 5 -19 10 -20 49 -14 24 4 54 15 68 25 18 13 52 20 110 23
47 3 93 8 102 12 11 4 35 -2 59 -14 80 -42 226 -41 344 1 62 23 301 142 328
165 16 12 34 23 42 23 7 0 39 19 72 43 68 51 133 91 133 83 0 -11 116 57 162
95 26 21 53 39 60 39 7 1 38 14 68 30 30 17 60 30 67 30 6 0 33 17 60 39 75
59 121 66 73 11 -11 -13 -20 -29 -20 -36 0 -7 -2 -19 -5 -26 -3 -8 3 -25 15
-38 11 -13 20 -31 20 -41 0 -10 5 -21 10 -24 6 -4 8 -10 5 -15 -3 -4 2 -11 11
-14 13 -5 14 -9 5 -20 -9 -10 -8 -15 4 -20 8 -3 14 -11 13 -18 -2 -8 6 -12 25
-10 37 5 34 -14 -5 -27 -17 -6 -28 -14 -24 -18 4 -4 -4 -13 -16 -20 l-23 -12
23 -1 c13 0 30 -7 39 -15 18 -18 18 -17 -22 -38 l-30 -16 26 -1 c22 0 26 -4
22 -24 -4 -19 1 -26 24 -34 29 -10 29 -10 -24 -28 -17 -5 -16 -7 2 -20 16 -12
17 -16 6 -23 -7 -5 -11 -13 -7 -19 3 -5 -14 -25 -39 -43 -25 -19 -55 -42 -67
-51 l-21 -18 26 0 c33 0 34 -9 5 -35 l-23 -20 40 -5 40 -5 -37 -14 c-21 -7
-38 -17 -38 -22 0 -5 -15 -15 -32 -23 l-33 -14 43 -1 c29 -1 44 4 48 14 4 8
11 15 16 15 6 0 6 -6 -1 -14 -9 -11 -9 -15 1 -19 7 -2 0 -8 -17 -11 -66 -15
-135 -37 -140 -46 -4 -6 8 -10 27 -10 31 -1 32 -1 14 -15 -23 -17 -28 -17 94
-15 87 1 93 0 75 -14 -11 -9 -27 -16 -35 -16 -9 0 -25 -7 -36 -15 -16 -10 -30
-12 -52 -5 -23 6 -43 4 -79 -11 l-48 -19 58 2 c31 2 57 0 57 -3 0 -3 10 -11
23 -17 l22 -11 -26 0 c-14 -1 -34 -7 -44 -15 -18 -13 -17 -15 18 -29 43 -19
49 -32 10 -24 -26 5 -26 4 -8 -9 10 -8 31 -14 45 -14 64 0 39 -37 -31 -46 -62
-8 -69 -19 -27 -38 27 -12 29 -15 11 -15 -37 -2 -36 -21 2 -37 53 -22 36 -28
-26 -10 -62 19 -99 20 -99 5 0 -16 -96 -4 -126 16 -26 16 -54 20 -54 6 0 -4
34 -34 75 -66 41 -31 75 -61 75 -66 0 -11 -36 6 -45 20 -3 5 -20 13 -38 16
-17 4 -44 14 -59 21 -36 18 -35 8 3 -36 31 -36 22 -55 -12 -24 -24 21 -32 14
-53 -49 -18 -55 -21 -87 -6 -87 14 0 12 -20 -4 -52 -9 -16 -11 -30 -5 -33 5
-4 9 -15 9 -25 0 -23 29 -33 67 -24 38 9 19 -12 -34 -37 -34 -15 -35 -17 -13
-18 14 -1 36 -4 50 -8 24 -6 23 -7 -10 -19 -27 -9 -30 -13 -13 -13 25 -1 39
-17 21 -23 -6 -2 35 -12 93 -22 167 -29 307 -67 365 -101 16 -9 20 -13 9 -10
-174 59 -237 76 -329 89 -75 11 -113 13 -120 6 -5 -5 -24 -10 -42 -10 -26 0
-33 -5 -40 -27 -4 -16 -8 -41 -8 -58 0 -27 4 -31 40 -36 21 -3 33 -7 27 -8
-26 -2 -12 -29 18 -35 23 -4 30 -10 25 -21 -3 -9 1 -18 8 -21 16 -6 13 -38 -5
-60 -9 -11 -7 -14 10 -14 14 0 21 -6 21 -20 0 -11 7 -20 15 -20 9 0 19 -8 22
-17 4 -10 11 -21 17 -25 6 -4 5 -12 -3 -22 -10 -12 -9 -17 6 -25 45 -26 58
-42 44 -50 -20 -12 -4 -31 26 -31 18 0 24 -4 20 -14 -4 -9 2 -18 15 -22 21 -6
20 -7 -8 -22 -23 -13 -25 -17 -11 -20 16 -3 19 -10 21 -57 1 -13 9 -21 24 -23
26 -4 29 -17 6 -26 -8 -3 -13 -10 -10 -15 3 -5 -1 -11 -9 -15 -25 -9 -17 -24
19 -37 19 -7 33 -16 30 -20 -2 -4 4 -12 13 -18 15 -8 11 -10 -19 -11 -43 0
-48 -11 -15 -33 l22 -16 -27 0 c-30 -1 -40 -21 -10 -21 16 -1 16 -1 0 -14 -10
-7 -15 -16 -11 -19 3 -4 -3 -19 -13 -34 -19 -29 -27 -66 -12 -57 4 3 17 -1 28
-9 19 -13 19 -15 4 -21 -13 -5 -14 -9 -4 -21 7 -8 19 -15 27 -15 13 0 13 -3 2
-16 -11 -14 -11 -18 3 -28 15 -11 15 -13 0 -23 -15 -10 -14 -12 7 -12 13 -1
21 -4 17 -9 -8 -7 -13 -8 -41 -11 -23 -2 -18 -16 10 -29 26 -12 36 -35 10 -26
-8 4 -22 3 -31 0 -15 -6 -15 -8 2 -27 10 -11 26 -18 35 -16 13 4 16 0 11 -12
-3 -9 -11 -20 -17 -26 -21 -17 -25 -44 -10 -59 19 -19 19 -30 0 -23 -20 8 -29
-11 -15 -28 10 -12 9 -15 -4 -15 -23 0 -20 -18 11 -58 l26 -35 -31 6 c-18 4
-32 4 -32 2 0 -2 14 -31 30 -63 36 -72 37 -82 5 -82 -22 0 -24 -3 -19 -32 3
-18 7 -38 9 -45 2 -6 -5 -13 -16 -16 -16 -4 -18 -11 -12 -39 3 -18 10 -34 15
-36 11 -5 10 -32 -2 -32 -5 0 -12 -11 -16 -25 -4 -17 -13 -25 -27 -25 -15 0
-18 -3 -10 -11 8 -8 7 -18 -3 -37 -9 -17 -10 -31 -3 -43 12 -23 12 -59 -1 -59
-5 0 -12 -11 -16 -25 -3 -14 -11 -25 -16 -25 -6 0 -8 -14 -4 -35 6 -28 4 -35
-9 -35 -8 0 -15 -6 -16 -12 -3 -34 4 -65 19 -82 16 -18 16 -19 -25 -13 -49 6
-54 -5 -21 -40 28 -30 18 -39 -22 -18 -28 14 -34 15 -47 3 -12 -12 -12 -18 2
-44 16 -31 20 -64 7 -64 -4 0 -16 9 -25 21 -28 32 -52 21 -51 -24 1 -27 -2
-35 -10 -28 -8 7 -17 0 -29 -22 -16 -30 -17 -36 -2 -70 12 -29 13 -37 2 -37
-7 0 -17 4 -23 9 -5 5 -23 12 -41 16 -28 6 -32 4 -38 -23 -3 -16 -5 -35 -3
-43 2 -7 -4 -13 -12 -14 -24 -1 -60 -16 -60 -24 0 -18 45 -45 217 -131 100
-49 184 -90 188 -90 3 0 25 -9 48 -19 23 -11 79 -32 124 -47 46 -15 81 -30 79
-32 -7 -6 -162 46 -264 89 -51 22 -164 75 -252 118 -134 66 -162 76 -169 64
-6 -11 -10 -12 -15 -4 -18 29 -27 7 -21 -51 l6 -63 -16 35 c-12 27 -18 31 -25
20 -5 -8 -6 -18 -3 -24 4 -5 -1 -7 -12 -2 -18 7 -35 -7 -35 -31 0 -6 43 -58
96 -115 156 -169 310 -368 389 -502 36 -62 25 -59 -17 6 -115 178 -230 320
-385 478 -123 124 -123 125 -139 102 -9 -13 -21 -21 -27 -19 -17 5 -58 -39
-51 -57 3 -9 1 -16 -5 -16 -6 0 -11 3 -11 8 0 4 -9 13 -20 20 -11 6 16 -44 62
-116 137 -214 253 -477 318 -719 l11 -43 219 0 c165 0 220 3 223 13 4 9 6 9 6
0 1 -10 59 -13 256 -13 l255 0 0 3200 0 3200 -1820 0 c-1512 0 -1820 -2 -1820
-13z m3220 -1657 c-20 -13 -60 -13 -60 0 0 6 17 10 38 10 27 0 33 -3 22 -10z
m170 -1020 c8 -5 12 -11 10 -14 -3 -2 -14 2 -24 10 -22 15 -10 19 14 4z m-180
-1105 c-7 -9 -15 -13 -19 -10 -3 3 1 10 9 15 21 14 24 12 10 -5z m125 -1795
c13 -5 14 -9 5 -9 -8 0 -24 4 -35 9 -13 5 -14 9 -5 9 8 0 24 -4 35 -9z m62
-16 c-3 -3 -12 -4 -19 -1 -8 3 -5 6 6 6 11 1 17 -2 13 -5z m-407 -514 c6 -11
8 -20 6 -20 -3 0 -10 9 -16 20 -6 11 -8 20 -6 20 3 0 10 -9 16 -20z"/>
<path d="M2375 5780 c3 -5 11 -10 16 -10 6 0 7 5 4 10 -3 6 -11 10 -16 10 -6
0 -7 -4 -4 -10z"/>
<path d="M2560 5763 c0 -5 9 -14 20 -21 11 -7 20 -8 20 -2 0 5 -9 14 -20 20
-11 6 -20 7 -20 3z"/>
<path d="M2410 5755 c0 -5 61 -65 66 -65 2 0 4 7 4 15 0 8 -6 15 -13 15 -7 0
-18 9 -25 20 -11 18 -32 28 -32 15z"/>
<path d="M2472 5661 c46 -30 78 -39 78 -23 0 4 -19 15 -43 24 -75 31 -83 30
-35 -1z"/>
<path d="M2762 5634 c10 -10 20 -16 22 -13 3 3 -5 11 -17 18 -21 13 -21 12 -5
-5z"/>
<path d="M2740 5592 c0 -14 65 -72 80 -72 8 0 38 -20 65 -45 39 -36 50 -53 51
-78 2 -51 3 -53 24 -76 10 -13 25 -21 32 -19 7 3 18 -2 25 -11 10 -13 12 -8
12 29 0 30 -8 58 -25 85 -13 22 -27 48 -30 57 -3 9 -12 14 -19 12 -7 -3 -15 5
-19 20 -3 14 -11 26 -16 26 -5 0 -7 -7 -4 -15 10 -25 -11 -17 -34 14 -12 16
-38 35 -59 41 -21 7 -48 19 -60 26 -13 8 -23 11 -23 6z m230 -223 c0 -5 -4 -9
-10 -9 -5 0 -10 7 -10 16 0 8 5 12 10 9 6 -3 10 -10 10 -16z m20 -29 c0 -5 -4
-10 -10 -10 -5 0 -10 5 -10 10 0 6 5 10 10 10 6 0 10 -4 10 -10z"/>
<path d="M2650 5570 c-8 -5 -12 -12 -9 -15 4 -3 12 1 19 10 14 17 11 19 -10 5z"/>
<path d="M2715 5534 c22 -14 33 -23 25 -21 -8 3 -24 8 -35 12 -14 5 -12 0 9
-19 17 -13 33 -23 38 -20 4 3 8 0 8 -5 0 -6 9 -11 20 -11 11 0 20 2 20 5 0 9
-56 60 -79 72 -42 23 -47 13 -6 -13z"/>
<path d="M2484 5515 c11 -8 27 -15 35 -15 13 1 12 4 -3 15 -11 8 -27 15 -35
15 -13 -1 -12 -4 3 -15z"/>
<path d="M2821 5466 c2 -2 14 -9 27 -15 18 -10 22 -9 22 4 0 10 -9 15 -27 15
-14 0 -24 -2 -22 -4z"/>
<path d="M2638 5438 c6 -6 18 -8 28 -6 14 3 12 5 -9 10 -19 3 -25 2 -19 -4z"/>
<path d="M2535 5370 c-4 -6 5 -10 20 -10 15 0 24 4 20 10 -3 6 -12 10 -20 10
-8 0 -17 -4 -20 -10z"/>
<path d="M3037 5273 c-4 -3 -7 -11 -7 -17 0 -6 5 -5 12 2 6 6 9 14 7 17 -3 3
-9 2 -12 -2z"/>
<path d="M3232 5103 c-5 -10 -6 -27 -2 -38 5 -16 8 -13 13 15 8 39 3 50 -11
23z"/>
<path d="M3006 5075 c-3 -8 -1 -15 4 -15 6 0 10 7 10 15 0 8 -2 15 -4 15 -2 0
-6 -7 -10 -15z"/>
<path d="M3560 4966 c-9 -11 -9 -20 0 -36 6 -12 9 -28 6 -36 -7 -18 8 -18 23
0 9 11 9 16 1 21 -7 4 -10 18 -7 31 5 29 -6 39 -23 20z"/>
<path d="M3940 4916 c0 -20 19 -31 32 -18 7 7 3 14 -11 21 -17 10 -21 9 -21
-3z"/>
<path d="M4450 4884 c-13 -32 -13 -81 -1 -89 5 -3 16 4 25 16 9 13 19 18 27
14 9 -6 10 -2 5 16 -4 13 -10 34 -13 47 -7 30 -31 28 -43 -4z"/>
<path d="M5098 4863 c-10 -2 -18 -9 -18 -14 0 -6 8 -5 20 1 11 6 20 13 20 15
0 3 -1 4 -2 4 -2 -1 -11 -3 -20 -6z"/>
<path d="M3549 4833 c-6 -16 -13 -48 -16 -73 -7 -66 -12 -78 -24 -60 -8 13
-12 11 -29 -10 -11 -14 -20 -31 -20 -37 0 -7 -4 -13 -9 -13 -5 0 -11 -10 -13
-22 -4 -25 -28 -37 -28 -14 0 9 -4 16 -10 16 -5 0 -10 -9 -10 -20 0 -11 -4
-20 -10 -20 -5 0 -10 -8 -11 -17 0 -12 -2 -13 -6 -5 -4 10 -8 10 -19 1 -17
-14 -25 -9 -27 20 -2 30 -11 26 -25 -12 -16 -45 -15 -49 8 -37 24 13 36 -6 27
-41 -5 -19 -4 -19 18 -5 22 15 24 14 27 -7 3 -20 5 -19 22 12 12 23 21 30 28
23 12 -12 -12 -57 -40 -78 -9 -6 -11 -13 -5 -17 14 -9 73 49 73 72 0 12 5 21
10 21 6 0 10 -9 10 -20 0 -11 5 -20 11 -20 7 0 9 11 6 29 -4 21 1 37 19 62 20
27 24 42 21 72 -4 31 1 50 24 88 16 28 29 54 29 59 0 5 7 13 16 18 11 6 13 16
9 35 -10 36 -42 36 -56 0z m-151 -305 c-6 -18 -28 -21 -28 -4 0 9 7 16 16 16
9 0 14 -5 12 -12z"/>
<path d="M3790 4810 c0 -16 5 -30 10 -30 6 0 10 14 10 30 0 17 -4 30 -10 30
-5 0 -10 -13 -10 -30z"/>
<path d="M4220 4809 c0 -5 6 -7 13 -3 7 5 7 1 -2 -10 -13 -15 -12 -21 3 -47 9
-16 12 -29 7 -29 -6 0 -11 -11 -11 -25 0 -22 10 -30 33 -26 4 1 5 -14 2 -33
-6 -29 -2 -39 23 -66 26 -27 34 -30 51 -20 15 7 21 21 21 44 0 28 -5 35 -25
40 -20 5 -25 13 -25 37 0 18 -4 28 -10 24 -5 -3 -10 1 -10 9 0 8 -6 21 -14 29
-8 7 -16 27 -18 43 -3 28 -14 44 -30 44 -5 0 -8 -5 -8 -11z"/>
<path d="M3900 4800 c0 -5 5 -9 12 -7 7 1 17 -8 23 -20 5 -13 13 -23 17 -23
12 0 9 35 -4 48 -15 15 -48 16 -48 2z"/>
<path d="M2917 4773 c-3 -15 -2 -32 2 -36 11 -11 20 38 11 53 -4 7 -10 0 -13
-17z"/>
<path d="M5030 4790 c0 -5 7 -7 15 -4 8 4 15 8 15 10 0 2 -7 4 -15 4 -8 0 -15
-4 -15 -10z"/>
<path d="M4776 4750 c-22 -10 -43 -17 -48 -14 -5 4 -23 -7 -39 -22 -21 -20
-32 -25 -37 -17 -4 7 -13 9 -21 4 -10 -7 -9 -9 3 -14 9 -4 16 -15 16 -26 0
-43 58 -34 113 18 39 36 74 91 59 91 -4 0 -25 -9 -46 -20z"/>
<path d="M4913 4723 c-24 -12 -31 -22 -31 -44 1 -26 3 -27 31 -22 25 5 29 3
24 -10 -8 -22 10 -26 52 -11 20 7 48 13 64 14 15 0 27 5 27 10 0 6 -18 10 -41
10 -45 0 -52 23 -8 28 13 2 31 5 39 8 25 9 -7 21 -70 28 -40 4 -63 1 -87 -11z
m64 -9 c-3 -3 -12 -4 -19 -1 -8 3 -5 6 6 6 11 1 17 -2 13 -5z m-44 -21 c-7 -2
-19 -2 -25 0 -7 3 -2 5 12 5 14 0 19 -2 13 -5z"/>
<path d="M2462 4705 c6 -13 15 -22 19 -19 11 7 1 31 -16 38 -11 4 -12 0 -3
-19z"/>
<path d="M3058 4700 c-12 -38 -10 -66 3 -53 6 6 9 26 7 44 -3 32 -3 33 -10 9z"/>
<path d="M2562 4688 c5 -15 28 -23 28 -10 0 5 -7 13 -16 16 -10 4 -14 1 -12
-6z"/>
<path d="M2231 4674 c0 -11 3 -14 6 -6 3 7 2 16 -1 19 -3 4 -6 -2 -5 -13z"/>
<path d="M3707 4683 c-4 -3 -7 -14 -7 -23 0 -10 -7 -23 -15 -30 -17 -14 -20
-76 -5 -85 25 -15 40 17 39 81 -1 67 -2 68 -12 57z"/>
<path d="M2952 4660 c0 -14 2 -19 5 -12 2 6 2 18 0 25 -3 6 -5 1 -5 -13z"/>
<path d="M2750 4663 c0 -19 11 -43 21 -43 13 0 11 14 -6 36 -8 10 -15 14 -15
7z"/>
<path d="M3185 4631 c-3 -16 -13 -35 -22 -42 -13 -11 -14 -10 -11 11 2 13 -3
25 -11 28 -11 4 -12 -1 -7 -19 5 -13 9 -35 10 -49 2 -14 4 -28 4 -33 3 -12 72
69 72 84 0 8 -7 22 -14 32 -13 17 -15 16 -21 -12z"/>
<path d="M5830 4650 c-8 -5 -10 -10 -5 -10 6 0 17 5 25 10 8 5 11 10 5 10 -5
0 -17 -5 -25 -10z"/>
<path d="M1780 4639 c0 -5 5 -7 10 -4 6 3 10 8 10 11 0 2 -4 4 -10 4 -5 0 -10
-5 -10 -11z"/>
<path d="M2060 4641 c0 -5 7 -14 15 -21 12 -10 15 -10 15 3 0 8 -7 17 -15 21
-8 3 -15 2 -15 -3z"/>
<path d="M2560 4641 c0 -5 5 -13 10 -16 6 -3 10 -2 10 4 0 5 -4 13 -10 16 -5
3 -10 2 -10 -4z"/>
<path d="M3365 4630 c-3 -5 -1 -10 4 -10 6 0 11 5 11 10 0 6 -2 10 -4 10 -3 0
-8 -4 -11 -10z"/>
<path d="M2955 4584 c-18 -43 -18 -44 -5 -44 5 0 17 16 25 36 18 43 18 44 5
44 -5 0 -17 -16 -25 -36z"/>
<path d="M3325 4610 c3 -5 13 -10 21 -10 8 0 12 5 9 10 -3 6 -13 10 -21 10 -8
0 -12 -4 -9 -10z"/>
<path d="M4070 4591 c0 -30 11 -51 25 -51 8 0 15 -10 17 -22 5 -38 28 -33 28
7 0 26 -7 43 -26 60 -32 30 -44 31 -44 6z"/>
<path d="M4775 4569 c-4 -6 -5 -12 -2 -15 2 -3 7 2 10 11 7 17 1 20 -8 4z"/>
<path d="M3082 4558 c-16 -16 -15 -25 3 -25 8 0 15 9 15 19 0 21 -2 22 -18 6z"/>
<path d="M3210 4551 c0 -5 -3 -16 -6 -25 -3 -9 -2 -16 4 -16 5 0 12 11 14 25
3 14 1 25 -3 25 -5 0 -9 -4 -9 -9z"/>
<path d="M4754 4516 c2 -20 6 -39 10 -43 3 -3 6 -17 6 -30 0 -12 5 -23 10 -23
6 0 10 -7 10 -15 0 -21 18 -19 25 4 3 11 12 24 20 31 11 9 12 4 8 -31 -4 -29
-3 -40 5 -35 16 10 24 -11 12 -34 -7 -13 -7 -20 0 -20 5 0 10 -8 10 -17 1 -13
5 -11 15 8 9 18 29 31 57 39 39 12 108 76 108 100 0 4 -19 8 -42 8 -88 1 -112
10 -101 38 6 17 -10 18 -38 3 -24 -12 -51 4 -42 27 6 17 -18 19 -36 2 -10 -11
-15 -9 -26 6 -13 17 -14 16 -11 -18z"/>
<path d="M3069 4517 c-1 -4 -2 -15 -3 -24 -1 -10 -5 -23 -9 -30 -14 -22 12
-23 27 -1 12 17 13 25 4 37 -7 9 -14 18 -15 20 -2 2 -4 1 -4 -2z"/>
<path d="M3095 4510 c-3 -5 -2 -10 4 -10 5 0 13 5 16 10 3 6 2 10 -4 10 -5 0
-13 -4 -16 -10z"/>
<path d="M2811 4492 c-7 -13 -11 -26 -8 -28 8 -8 29 25 25 38 -3 8 -9 4 -17
-10z"/>
<path d="M3262 4479 c-7 -12 -11 -24 -7 -27 7 -8 25 17 25 36 0 17 -3 15 -18
-9z"/>
<path d="M4307 4482 c-9 -10 -17 -32 -17 -48 0 -17 -5 -35 -11 -41 -14 -14 -8
-65 9 -71 6 -2 12 3 12 12 0 30 17 16 18 -14 1 -49 22 -102 38 -96 7 3 18 -2
23 -11 7 -14 11 -9 20 23 17 62 14 81 -24 115 -19 17 -33 34 -33 38 3 12 -15
56 -26 64 -8 5 -7 10 3 16 7 5 12 14 9 21 -2 7 -9 5 -21 -8z m8 -92 c3 -5 1
-10 -4 -10 -6 0 -11 5 -11 10 0 6 2 10 4 10 3 0 8 -4 11 -10z"/>
<path d="M3320 4429 c0 -24 23 -21 28 4 2 10 -3 17 -12 17 -10 0 -16 -9 -16
-21z"/>
<path d="M5065 4442 c-10 -7 -28 -36 -54 -87 -8 -16 -21 -36 -28 -44 -8 -7
-11 -16 -8 -20 4 -3 16 6 27 22 11 15 36 43 55 64 35 36 36 36 52 16 12 -16
21 -19 39 -12 38 15 26 37 -22 41 -14 1 -28 8 -30 15 -6 15 -16 16 -31 5z"/>
<path d="M4420 4353 c0 -5 5 -15 10 -23 8 -12 10 -11 10 8 0 12 -4 22 -10 22
-5 0 -10 -3 -10 -7z"/>
<path d="M5227 4343 c-13 -12 -7 -23 13 -23 11 0 20 7 20 15 0 15 -21 21 -33
8z"/>
<path d="M5199 4308 c-1 -5 -2 -12 -3 -17 0 -5 -37 -37 -81 -71 -44 -34 -82
-66 -84 -72 -2 -6 2 -8 9 -3 8 5 11 3 8 -5 -2 -8 -11 -17 -19 -20 -44 -21 -54
-29 -57 -47 -2 -15 4 -22 22 -27 24 -6 37 -2 113 30 38 17 66 19 43 4 -11 -8
-7 -9 15 -4 17 4 32 11 33 16 4 9 68 38 85 38 6 0 -11 -14 -39 -32 -57 -36
-47 -47 17 -19 61 26 91 56 84 84 -5 17 1 26 24 40 16 9 39 17 50 17 12 0 21
6 21 16 0 20 -24 44 -44 44 -8 0 -18 5 -21 10 -8 12 -52 13 -59 1 -9 -13 -97
-5 -107 11 -5 7 -9 10 -10 6z"/>
<path d="M4896 4275 c-3 -8 -1 -15 3 -15 5 0 11 7 15 15 3 8 1 15 -3 15 -5 0
-11 -7 -15 -15z"/>
<path d="M5046 4269 c-15 -12 -25 -23 -22 -26 7 -8 43 15 50 32 7 20 4 19 -28
-6z"/>
<path d="M4427 4226 c-5 -15 -6 -31 -3 -34 8 -8 18 25 14 45 -3 13 -6 10 -11
-11z"/>
<path d="M4920 4175 c0 -8 5 -15 10 -15 6 0 10 7 10 15 0 8 -4 15 -10 15 -5 0
-10 -7 -10 -15z"/>
<path d="M4977 4183 c-10 -9 -9 -23 2 -23 5 0 11 7 15 15 5 15 -5 20 -17 8z"/>
<path d="M5040 4001 c0 -6 -12 -11 -27 -11 -19 0 -24 -3 -16 -11 8 -8 18 -7
38 4 18 9 24 17 16 21 -6 4 -11 2 -11 -3z"/>
<path d="M2527 3453 c-13 -13 -7 -21 25 -32 38 -14 59 0 35 23 -16 16 -48 21
-60 9z"/>
<path d="M2620 3396 c0 -16 27 -29 42 -20 7 5 4 12 -7 21 -24 17 -35 17 -35
-1z"/>
<path d="M2690 3348 c14 -13 61 -40 105 -61 44 -21 100 -48 125 -61 46 -24 94
-81 86 -102 -6 -14 28 -89 45 -99 23 -15 27 12 9 54 -11 24 -20 57 -20 75 0
42 -6 49 -75 83 -63 31 -100 50 -125 65 -8 5 -23 11 -34 15 -10 3 -39 17 -63
30 -59 31 -87 31 -53 1z"/>
<path d="M4168 2863 c-14 -4 -33 -32 -26 -38 2 -1 25 4 52 12 36 11 46 17 35
24 -15 9 -32 10 -61 2z"/>
<path d="M4386 2861 c-9 -14 23 -27 89 -35 66 -8 94 8 39 23 -72 19 -121 24
-128 12z"/>
<path d="M4101 2793 c-18 -16 -19 -20 -6 -37 12 -16 15 -17 15 -4 0 9 7 18 15
22 16 6 21 36 6 36 -5 0 -18 -8 -30 -17z"/>
<path d="M4031 2710 c-41 -40 -39 -45 9 -20 22 11 40 27 40 35 0 23 -14 18
-49 -15z"/>
<path d="M5870 2535 c0 -8 7 -15 15 -15 8 0 15 7 15 15 0 8 -7 15 -15 15 -8 0
-15 -7 -15 -15z"/>
<path d="M3113 2392 c-39 -4 -42 -21 -9 -53 13 -13 22 -29 19 -36 -3 -7 0 -13
6 -13 35 0 120 -108 117 -149 -1 -20 2 -27 11 -24 8 3 13 -2 13 -14 0 -11 7
-28 15 -39 8 -10 15 -28 15 -40 0 -11 8 -28 18 -37 28 -26 19 -134 -13 -163
-18 -17 -23 -30 -21 -58 2 -25 -1 -36 -10 -36 -7 0 -18 -9 -24 -20 -6 -11 -15
-18 -20 -15 -5 3 -20 -6 -32 -21 -49 -58 -71 -73 -89 -64 -12 7 -21 5 -30 -6
-8 -10 -21 -13 -40 -9 -24 6 -32 1 -58 -36 l-31 -42 0 48 c0 39 -3 46 -16 41
-9 -4 -22 -2 -28 3 -14 12 -58 3 -50 -11 3 -5 -5 -6 -20 -2 -21 5 -26 3 -26
-13 0 -10 -4 -23 -10 -29 -11 -11 9 -15 73 -16 20 0 37 -4 37 -9 0 -5 7 -9 16
-9 11 0 15 -6 11 -20 -7 -27 19 -26 33 1 7 11 14 18 17 15 3 -3 1 -12 -6 -19
-19 -24 9 -39 41 -23 15 8 29 11 33 8 3 -3 8 4 12 16 6 25 23 30 23 6 0 -11 5
-14 16 -10 14 5 16 1 11 -29 -4 -26 0 -46 16 -74 19 -33 24 -37 42 -27 11 6
23 15 26 20 4 5 12 5 18 2 6 -4 15 3 21 18 6 18 17 26 32 25 13 0 36 3 51 7
19 4 33 1 47 -11 10 -9 29 -15 42 -14 28 4 51 -8 42 -23 -4 -6 1 -8 14 -4 11
4 23 2 27 -4 3 -6 11 -7 17 -4 7 5 9 1 5 -9 -5 -12 -1 -17 12 -17 34 0 51 12
51 35 0 19 -7 24 -41 30 -29 5 -43 13 -46 26 -6 21 -18 25 -28 9 -7 -11 -36
13 -34 27 4 22 -3 33 -21 33 -13 0 -18 5 -14 15 3 8 2 20 -2 27 -5 7 -10 24
-11 38 -1 14 -4 52 -7 85 -7 90 1 122 32 130 l27 7 -23 18 c-23 19 -23 20 -7
55 10 19 21 35 26 35 5 0 9 7 9 15 0 8 7 15 15 15 8 0 19 8 24 19 10 17 48 45
109 79 13 8 26 20 29 28 3 8 11 14 18 14 7 0 18 7 25 15 7 8 15 13 19 10 4 -2
21 3 37 11 16 9 38 18 48 20 22 4 38 24 32 39 -2 6 -10 8 -17 6 -31 -10 -89
-13 -89 -5 0 12 -106 7 -130 -6 -25 -14 -30 -13 -30 6 0 8 -4 13 -9 10 -5 -3
-14 8 -21 24 -16 39 -25 44 -51 30 -16 -9 -24 -8 -40 6 -10 9 -19 13 -19 9 0
-4 -9 0 -20 10 -15 14 -20 15 -20 4 -1 -10 -4 -9 -14 4 -7 9 -19 17 -25 17 -7
0 -10 4 -7 9 3 5 -12 16 -34 25 -24 9 -40 22 -40 32 0 11 -6 15 -20 11 -13 -3
-20 0 -20 9 0 11 -4 12 -19 4 -11 -5 -21 -7 -23 -2 -2 4 -18 6 -35 4z m-83
-876 c0 -3 -4 -8 -10 -11 -5 -3 -10 -1 -10 4 0 6 5 11 10 11 6 0 10 -2 10 -4z"/>
<path d="M2746 1574 c-5 -13 -3 -14 6 -7 7 6 20 13 28 16 10 4 8 6 -6 6 -12 1
-25 -6 -28 -15z"/>
<path d="M1028 1561 c-21 -21 -23 -37 -5 -44 10 -4 10 -6 0 -6 -26 -2 -12 -20
20 -27 30 -7 31 -8 8 -13 -36 -9 -36 -25 1 -39 24 -9 29 -15 21 -23 -13 -13
-6 -39 16 -55 8 -6 12 -18 8 -27 -3 -8 1 -23 8 -34 14 -17 14 -17 15 0 0 10 5
15 11 12 6 -4 8 -13 5 -21 -4 -9 7 -22 27 -34 42 -24 68 -51 61 -61 -3 -5 9
-9 25 -9 18 0 31 -5 31 -12 0 -9 4 -8 10 2 8 12 10 9 10 -12 0 -14 -6 -28 -12
-30 -7 -3 -2 -7 10 -10 12 -4 20 -2 16 3 -3 5 0 9 5 9 6 0 11 6 11 14 0 8 18
60 39 115 30 76 36 101 25 101 -8 0 -14 -7 -14 -16 0 -14 -3 -14 -15 -4 -8 7
-15 18 -15 24 0 15 -48 37 -56 25 -3 -5 -14 -9 -26 -9 -17 0 -19 4 -14 25 3
14 9 37 12 53 l6 27 -26 -27 c-25 -26 -65 -40 -51 -18 9 15 -25 60 -41 53 -9
-3 -14 2 -14 15 0 27 -19 32 -47 15 -12 -8 -28 -13 -35 -10 -8 3 -6 6 6 6 12
1 16 6 12 17 -3 9 -6 22 -6 30 0 19 -21 17 -42 -5z"/>
<path d="M2176 1423 c-10 -3 -28 -14 -39 -24 -17 -16 -18 -19 -5 -19 9 0 23 7
32 15 8 8 21 15 30 15 8 0 18 5 21 10 6 10 -6 11 -39 3z"/>
<path d="M2411 1348 c-17 -27 -9 -33 13 -9 10 10 13 21 9 24 -5 3 -15 -3 -22
-15z"/>
<path d="M1437 1322 c-20 -22 -71 -131 -64 -138 11 -11 87 100 87 127 0 34 -2
35 -23 11z"/>
<path d="M1514 1285 c-35 -15 -133 -124 -152 -168 -15 -34 -15 -50 -2 -42 6 3
10 -3 10 -13 0 -11 7 -25 15 -32 8 -7 15 -21 15 -31 0 -10 8 -20 19 -24 13 -4
17 -12 13 -32 -6 -32 21 -55 54 -47 15 4 29 0 39 -10 9 -8 22 -13 30 -10 18 7
19 0 4 -29 -9 -19 -8 -19 10 3 10 13 18 28 15 31 -2 4 0 9 4 11 11 4 136 186
145 210 6 17 -21 120 -41 154 -11 18 -11 18 -12 -2 0 -11 -6 -28 -14 -39 -12
-17 -13 -17 -19 7 -4 14 -16 28 -28 31 -12 3 -18 10 -15 16 4 5 2 12 -4 16 -6
3 -13 -1 -16 -9 -9 -23 -24 -20 -24 4 0 23 -4 23 -46 5z m4 -324 c25 -22 28
-31 9 -31 -12 0 -47 34 -47 45 0 10 16 4 38 -14z"/>
<path d="M1739 1253 c-5 -84 -1 -123 10 -123 10 0 81 105 81 120 0 5 -9 10
-19 10 -11 0 -22 6 -24 13 -4 9 -8 8 -16 -3 -10 -13 -12 -13 -21 0 -7 12 -10
8 -11 -17z"/>
<path d="M1854 1217 c-72 -80 -104 -120 -104 -133 0 -7 -4 -14 -9 -16 -10 -3
-111 -174 -111 -188 0 -4 7 -11 16 -14 8 -3 12 -11 9 -17 -5 -7 -11 -7 -17 -1
-11 11 -58 -36 -58 -57 0 -14 37 -15 45 -1 11 19 25 10 25 -15 0 -14 7 -37 16
-50 15 -23 15 -24 -18 -33 -27 -8 -19 -9 44 -8 42 0 80 -2 84 -6 4 -5 -4 -18
-17 -29 -20 -19 -21 -21 -4 -15 11 5 46 9 78 11 54 3 57 2 57 -21 0 -15 6 -24
15 -24 8 0 15 -6 15 -14 0 -8 -8 -12 -23 -9 -14 3 -29 -2 -36 -11 -12 -14 -10
-15 19 -9 23 4 31 3 26 -5 -3 -6 -2 -13 4 -17 5 -3 15 5 21 19 15 31 24 27 27
-12 2 -25 -3 -32 -28 -40 -18 -7 -30 -18 -30 -29 0 -21 20 -56 20 -35 0 6 7
12 15 12 8 0 15 -6 15 -14 0 -9 8 -12 25 -8 21 4 36 18 69 68 1 1 13 4 29 8
19 5 27 3 27 -7 0 -8 9 -22 20 -32 19 -17 20 -17 31 9 12 25 12 25 26 6 8 -11
23 -20 34 -20 10 0 19 -5 19 -10 0 -20 31 -23 44 -5 16 23 36 11 36 -20 0 -18
4 -23 15 -19 8 4 15 2 15 -4 0 -6 -5 -12 -11 -14 -19 -6 -20 -90 -2 -117 9
-13 19 -36 22 -50 6 -22 10 -18 27 37 10 34 25 62 32 62 6 0 12 -5 12 -11 0
-5 4 -8 9 -4 11 6 0 49 -24 98 -15 30 -29 107 -40 222 l-5 50 10 -40 c32 -125
80 -274 91 -280 5 -4 9 -1 9 5 0 6 5 8 10 5 6 -3 15 4 20 17 9 19 9 16 5 -15
-4 -26 -1 -42 10 -53 20 -20 20 -48 0 -40 -23 8 -18 -19 10 -64 14 -22 25 -48
25 -57 0 -15 2 -16 10 -3 5 8 7 24 4 34 -5 15 -2 18 15 13 24 -6 27 7 10 49
-10 28 -10 28 10 9 25 -22 28 -4 7 38 -17 30 -4 37 16 8 8 -11 23 -17 38 -16
20 2 25 7 23 29 -1 17 3 26 13 26 8 0 14 -7 14 -15 0 -24 43 -105 56 -105 14
0 15 39 2 57 -6 7 -5 20 2 33 9 17 7 30 -10 66 -12 24 -26 44 -31 44 -5 0 -9
6 -9 13 0 6 -12 35 -27 62 -17 32 -20 45 -10 37 9 -8 22 -29 29 -48 6 -19 15
-34 20 -34 4 0 15 -14 24 -32 9 -18 22 -38 28 -45 6 -7 17 -20 25 -29 12 -14
16 -13 42 16 16 17 27 35 24 40 -12 19 14 18 31 -1 10 -12 27 -25 38 -31 17
-9 18 -7 14 16 -3 14 -1 23 3 20 5 -3 9 -10 9 -16 0 -13 30 -37 48 -38 8 0 10
8 6 25 -4 15 -2 25 5 25 7 0 7 8 0 26 -11 30 -4 43 13 26 7 -7 25 -12 40 -12
15 0 45 -9 65 -20 45 -24 67 -26 59 -5 -4 13 2 14 37 9 23 -4 47 -11 53 -15 6
-5 14 -6 17 -2 13 12 7 23 -13 23 -11 0 -20 5 -20 11 0 8 17 10 55 5 50 -6 56
-4 53 11 -2 13 3 18 22 17 14 -1 33 -4 43 -9 12 -5 17 -3 17 8 0 20 23 28 98
34 41 3 62 1 62 -6 0 -6 12 -11 26 -11 21 0 24 4 19 20 -6 18 -2 20 38 20 36
0 46 4 50 20 3 12 11 18 20 15 10 -5 16 4 21 32 5 31 2 41 -15 55 -13 11 -19
24 -15 34 4 10 -3 26 -16 40 -27 27 -38 30 -38 9 0 -17 -16 -20 -25 -5 -21 34
-73 -19 -60 -61 10 -31 -10 -21 -22 11 -13 34 -33 40 -33 10 0 -11 -7 -20 -15
-20 -8 0 -18 -12 -21 -27 -7 -25 -8 -25 -15 -8 -4 11 -5 30 -2 41 5 21 -21 42
-32 25 -13 -23 -63 -1 -111 48 -48 48 -54 51 -79 41 -16 -6 -31 -7 -34 -3 -3
4 -21 19 -40 32 -23 16 -36 20 -40 12 -5 -8 -19 -5 -47 8 -38 19 -39 19 -59 0
-19 -17 -23 -17 -43 -3 -12 8 -26 13 -31 10 -14 -9 -75 15 -92 37 -9 11 -20
17 -25 14 -5 -3 -27 3 -49 13 -22 11 -51 19 -65 20 -15 0 -31 5 -37 11 -7 7
-28 12 -48 13 -20 0 -39 6 -43 11 -4 6 -16 12 -27 13 -11 2 -21 8 -23 13 -2 5
-12 9 -23 9 -18 0 -24 -15 -20 -47 1 -7 -3 -13 -9 -13 -5 0 -10 9 -10 20 0 12
-10 24 -24 29 -13 5 -25 18 -28 28 -5 19 -10 19 -103 10 l-30 -3 3 -62 c3 -75
-13 -82 -22 -9 -11 82 -16 95 -42 101 -14 4 -21 11 -18 20 3 7 -2 16 -10 19
-18 7 -21 58 -6 88 8 15 7 19 -4 19 -8 0 -19 -13 -25 -30 -10 -30 -36 -40 -56
-22 -6 5 -29 15 -53 22 -24 8 -48 22 -53 32 -6 12 -21 18 -43 18 -18 0 -44 8
-57 19 -49 38 -62 35 -115 -22z m128 -147 c40 -40 29 -52 -54 -59 -5 -1 -8 -7
-8 -14 0 -7 -7 -22 -15 -33 -14 -19 -14 -19 -28 1 -8 11 -24 31 -36 44 -26 29
-27 53 -3 73 39 35 102 30 144 -12z m-159 -97 c29 -40 33 -49 21 -61 -17 -17
-17 -17 2 -37 9 -9 13 -19 9 -23 -10 -11 -62 58 -74 99 -25 81 -8 90 42 22z
m285 -24 c2 -25 -3 -43 -17 -60 l-21 -24 -26 29 -25 28 20 22 c12 12 21 28 21
35 0 7 9 11 23 9 17 -2 23 -10 25 -39z m339 -311 c-3 -8 -6 -5 -6 6 -1 11 2
17 5 13 3 -3 4 -12 1 -19z m191 -13 c-3 -3 -9 2 -12 12 -6 14 -5 15 5 6 7 -7
10 -15 7 -18z m-91 -199 c9 -12 17 -24 15 -28 -1 -5 4 -8 12 -8 12 0 30 -50
20 -59 -7 -8 -74 74 -74 92 0 10 -11 37 -24 61 -13 23 -27 58 -30 77 -5 23 4
10 28 -40 19 -41 43 -84 53 -95z m1101 117 c-16 -21 -30 -15 -18 7 6 11 8 20
5 20 -4 0 -3 5 1 12 5 8 10 6 14 -8 4 -10 3 -25 -2 -31z m-978 17 c0 -5 -2
-10 -4 -10 -3 0 -8 5 -11 10 -3 6 -1 10 4 10 6 0 11 -4 11 -10z m1080 -10 c0
-5 -4 -10 -10 -10 -5 0 -10 5 -10 10 0 6 5 10 10 10 6 0 10 -4 10 -10z m-1714
-32 c-6 -33 -23 -51 -39 -41 -4 3 -6 11 -3 18 2 7 0 17 -6 23 -8 8 -5 14 13
21 38 15 42 13 35 -21z m-46 -48 c0 -5 -7 -10 -15 -10 -8 0 -15 5 -15 10 0 6
7 10 15 10 8 0 15 -4 15 -10z m366 -197 c-10 -10 -19 5 -10 18 6 11 8 11 12 0
2 -7 1 -15 -2 -18z"/>
<path d="M3131 1072 c-11 -21 -18 -119 -8 -128 10 -10 27 6 27 25 0 10 11 30
24 44 31 33 25 77 -10 77 -13 0 -28 -8 -33 -18z"/>
<path d="M1490 866 c0 -2 7 -6 15 -10 8 -3 15 -1 15 4 0 6 -7 10 -15 10 -8 0
-15 -2 -15 -4z"/>
<path d="M4959 833 c-7 -18 -14 -23 -29 -18 -21 7 -28 -10 -7 -18 9 -4 9 -6 0
-6 -7 -1 -10 -8 -7 -16 6 -15 -9 -20 -49 -15 -15 1 -17 -3 -12 -19 3 -12 3
-21 -2 -21 -4 0 -14 -9 -21 -21 -11 -18 -11 -24 4 -40 14 -15 15 -21 4 -34
-11 -14 -7 -23 32 -63 25 -26 62 -72 82 -104 20 -31 62 -76 93 -100 48 -37 53
-43 35 -46 -18 -3 -21 -8 -16 -30 4 -15 11 -31 15 -36 5 -6 9 -16 9 -24 0 -8
11 -23 25 -34 31 -25 69 -102 61 -124 -3 -8 -3 -26 0 -40 6 -24 8 -24 125 -24
65 0 119 3 119 8 -1 20 -61 209 -95 297 -71 184 -239 482 -301 536 -27 23 -54
20 -65 -8z"/>
<path d="M3830 594 c0 -8 5 -12 10 -9 6 3 10 10 10 16 0 5 -4 9 -10 9 -5 0
-10 -7 -10 -16z"/>
<path d="M1870 445 c0 -8 5 -15 10 -15 6 0 10 7 10 15 0 8 -4 15 -10 15 -5 0
-10 -7 -10 -15z"/>
<path d="M2020 424 c0 -8 5 -12 10 -9 6 3 10 10 10 16 0 5 -4 9 -10 9 -5 0
-10 -7 -10 -16z"/>
<path d="M2183 333 c-7 -3 -13 -14 -13 -24 0 -11 -4 -17 -10 -14 -14 9 -13 -8
2 -23 17 -17 30 -15 27 6 -1 9 1 25 6 35 9 21 5 26 -12 20z"/>
<path d="M2231 184 c0 -11 3 -14 6 -6 3 7 2 16 -1 19 -3 4 -6 -2 -5 -13z"/>
</g>
</svg>
